<svg viewBox="0 0 640 400" data-background-color="#41584b" preserveAspectRatio="xMidYMid meet" height="400" width="640" xmlns="http://www.w3.org/2000/svg" xmlns:xlink="http://www.w3.org/1999/xlink"><rect width="640" height="400" x="0" y="0" opacity="1" fill="#41584b" data-fill-palette-color="background" id="background"></rect><g id="tight-bounds" transform="matrix(1,0,0,1,122.24000000000001,76.4)"><svg viewBox="0 0 395.52 247.2" height="247.2" width="395.52"><g><svg></svg></g><g><svg viewBox="0 0 395.52 247.2" height="247.2" width="395.52"><g transform="matrix(1,0,0,1,0,70.64699939351631)"><svg viewBox="0 0 395.52 105.90600121296737" height="105.90600121296737" width="395.52"><g><svg viewBox="0 0 395.52 105.90600121296737" height="105.90600121296737" width="395.52"><g><svg viewBox="0 0 395.52 105.90600121296737" height="105.90600121296737" width="395.52"><g id="textblocktransform"><svg viewBox="0 0 395.52 105.90600121296737" height="105.90600121296737" width="395.52" id="textblock"><g><svg viewBox="0 0 395.52 71.75442265795206" height="71.75442265795206" width="395.52"><g transform="matrix(1,0,0,1,0,0)"><svg width="395.52" viewBox="-1.5 -41 345.2200012207031 63.453125" height="71.75442265795206" data-palette-color="#ffffff"><path d="M11.5-2.6Q12.85-2.85 17.1-3.75L17.1-3.75 20.95-4.55Q21.6-3.9 22.05-3.4 22.5-2.9 22.5-2.55L22.5-2.55Q22.5-2.15 22.1-1.75 21.7-1.35 20.5-0.45L20.5-0.45Q20.35-0.35 20.18-0.1 20 0.15 19.8 0.2L19.8 0.2 18.45 0.55Q16.75 1.05 15.43 1.33 14.1 1.6 12.75 1.6L12.75 1.6Q7.95 1.6 4.9-1.25L4.9-1.25Q3.75-2.3 3.13-3.38 2.5-4.45 2.5-5.7L2.5-5.7Q2.5-6.25 2.55-6.5L2.55-6.5Q3.35-11.45 4.35-14.9L4.35-14.9Q5.4-18.7 8.15-27.8L8.15-27.8Q8.75-29.95 10.05-34.25L10.05-34.25Q10.4-35.4 11.03-35.85 11.65-36.3 12.85-36.2L12.85-36.2Q13.1-36.2 13.33-36.15 13.55-36.1 13.8-36.1L13.8-36.1Q16.9-35.85 16.9-33.1L16.9-33.1Q16.9-32.4 16.7-31.65L16.7-31.65Q16.3-30.05 15.2-27.35L15.2-27.35Q11.15-17.05 8.95-7.5L8.95-7.5Q8.65-6.3 8.65-5L8.65-5Q8.65-2.55 10.8-2.55L10.8-2.55Q11.25-2.55 11.5-2.6L11.5-2.6ZM29.8-21Q31.05-20.65 31.57-20.15 32.1-19.65 32.1-18.8L32.1-18.8Q32.1-18.4 31.95-17.75L31.95-17.75Q31.4-15.5 31.35-13.25L31.35-13.25Q31.3-10.7 32.15-8.55L32.15-8.55Q32.45-7.8 32.72-7.48 33-7.15 33.4-7.15L33.4-7.15Q33.9-7.15 34.7-8.05L34.7-8.05Q36.55-10.25 37.45-12.45 38.35-14.65 38.55-17L38.55-17Q38.7-18.55 39.05-18.95L39.05-18.95Q39.25-19.15 39.7-19.2 40.15-19.25 41-19.25L41-19.25Q42.35-19.15 42.87-19 43.4-18.85 43.6-18.5 43.8-18.15 43.8-17.35L43.8-17.35 43.75-15Q43.75-14.25 43.7-12.8L43.7-12.8Q43.55-8.3 43.45-6.1L43.45-6.1Q43.4-4.35 42.4-1.7L42.4-1.7Q42.3-1.55 41.85-1.28 41.4-1 41.05-0.95L41.05-0.95Q40.95-0.95 40.62-1.28 40.3-1.6 40.15-1.85L40.15-1.85Q39.8-2.65 39.35-4L39.35-4 38.95-4.95 38.85-5.25 38.7-5.1 37.9-4.6Q37.3-4.1 36.6-3.8L36.6-3.8Q35.45-3.1 33.85-3.1L33.85-3.1Q31.85-3.1 30.05-4.23 28.25-5.35 27.2-7.3L27.2-7.3Q25.5-10.3 25.5-14.25L25.5-14.25Q25.5-16.25 26.05-19.3L26.05-19.3Q26.15-20.05 27-20.6L27-20.6Q27.75-21.15 28.75-21.15L28.75-21.15Q29.25-21.15 29.8-21L29.8-21ZM65.55-12.6Q65.4-9 65.05-7.15 64.7-5.3 63.67-3.63 62.65-1.95 60.35 0.25L60.35 0.25 62.1 1.2Q63.7 2.1 64.45 2.45L64.45 2.45Q66.7 3.5 67.84 5.13 69 6.75 69 8.7L69 8.7Q69 11.1 67.4 13.45L67.4 13.45Q65.7 15.95 63.15 17.18 60.6 18.4 57.7 18.45L57.7 18.45Q55.55 18.5 53.3 17.75L53.3 17.75Q52.25 17.4 51.2 16.23 50.15 15.05 49.52 13.6 48.9 12.15 48.95 11.05L48.95 11.05Q49 10.8 49.15 10.53 49.3 10.25 49.5 10.2L49.5 10.2Q49.55 10.15 49.7 10.15L49.7 10.15Q49.85 10.15 50.12 10.28 50.4 10.4 50.5 10.45L50.5 10.45Q50.75 10.55 50.85 10.9L50.85 10.9Q51.55 12.45 52.4 13.35 53.25 14.25 54.65 14.15L54.65 14.15Q59.8 13.8 61.7 11.3L61.7 11.3Q62.35 10.5 62.77 9.47 63.2 8.45 63.2 7.55L63.2 7.55Q63.2 6.25 62.57 5.65 61.95 5.05 60.65 4.8L60.65 4.8Q59.25 4.55 57.97 4.1 56.7 3.65 54.9 2.75L54.9 2.75Q54 2.3 53.65 1.95 53.3 1.6 53.3 1.1L53.3 1.1Q53.3 0.6 53.9-1.45L53.9-1.45Q54-1.75 52.97-2.45 51.95-3.15 51.2-3.6L51.2-3.6Q48.5-5.2 48.5-8.8L48.5-8.8Q48.5-9.8 48.65-10.7L48.65-10.7Q49.55-16.2 54-18.5L54-18.5Q55.05-19.05 56.2-19.05L56.2-19.05Q57.05-19.05 57.95-18.8 58.85-18.55 59-18.5L59-18.5 60.05-18.2Q60.8-18 61.5-18L61.5-18Q62.45-18 63.22-18.35 64-18.7 64.8-19.45L64.8-19.45Q65.95-20.4 67.25-20.4L67.25-20.4Q68.2-20.4 68.95-19.88 69.7-19.35 70.05-18.35L70.05-18.35Q70.15-17.95 70.15-17.7L70.15-17.7Q70.15-17.25 70-17L70-17Q69.84-16.8 69.15-15.7L69.15-15.7Q68.8-15.05 68.5-14.6 68.2-14.15 67.55-13.6L67.55-13.6Q67.09-13.35 66.59-13.23 66.09-13.1 65.82-13 65.55-12.9 65.55-12.6L65.55-12.6ZM55.05-13.35Q53.5-11.55 53.5-9.7L53.5-9.7Q53.5-8.4 54.32-7.23 55.15-6.05 56.85-5.2L56.85-5.2Q58.75-5.95 59.8-7.8 60.85-9.65 60.85-11.85L60.85-11.85Q60.85-13.2 60.45-14.3 60.05-15.4 58.85-16L58.85-16Q56.55-15.1 55.05-13.35L55.05-13.35ZM88.49-2.55Q88.04-2.75 87.59-2.75L87.59-2.75Q87.14-2.75 86.82-2.53 86.49-2.3 86.09-1.85L86.09-1.85Q85.49-1.25 84.84-0.85L84.84-0.85Q84.24-0.5 82.64-0.2L82.64-0.2Q81.94-0.1 81.49-0.1L81.49-0.1Q79.39-0.1 77.12-1.03 74.84-1.95 73.89-3.25L73.89-3.25Q72.89-4.65 72.94-6.25L72.94-6.25Q72.99-8.65 74.94-11.05L74.94-11.05Q76.84-13.35 78.42-14.3 79.99-15.25 82.74-15.5L82.74-15.5Q83.34-15.5 84.47-15.7 85.59-15.9 85.59-16.25L85.59-16.25Q85.59-16.95 84.97-17.53 84.34-18.1 82.44-18.1L82.44-18.1Q81.74-18.1 80.34-18L80.34-18Q78.94-17.9 78.39-17.9L78.39-17.9Q76.69-17.9 75.94-18.45L75.94-18.45Q75.74-18.55 75.74-19.4L75.74-19.4Q75.74-20.9 76.79-21.3L76.79-21.3Q78.94-22.1 81.24-22.15L81.24-22.15Q84.14-22.15 86.62-20.88 89.09-19.6 90.24-17.7L90.24-17.7Q91.39-15.8 91.74-12.45L91.74-12.45Q92.14-8.7 92.14-2.9L92.14-2.9Q92.14-1.3 91.69-1.05L91.69-1.05Q91.29-0.8 90.94-0.8L90.94-0.8Q90.49-0.8 90.12-1.07 89.74-1.35 89.29-1.85L89.29-1.85Q88.84-2.4 88.49-2.55L88.49-2.55ZM80.59-3.15Q82.94-3.85 85.19-5.4L85.19-5.4Q85.69-5.75 86.09-6.3 86.49-6.85 86.59-7L86.59-7Q86.69-7.15 86.77-7.88 86.84-8.6 86.79-9.05L86.79-9.05Q86.74-9.2 86.62-9.85 86.49-10.5 86.24-11L86.24-11Q85.99-11.4 85.44-11.75 84.89-12.1 84.44-12.05L84.44-12.05Q83.49-12 82.39-11.35 81.29-10.7 80.34-9.6L80.34-9.6Q79.39-8.45 78.87-7.28 78.34-6.1 78.34-5.1L78.34-5.1Q78.44-3.75 79.09-3.3L79.09-3.3Q79.44-3.05 79.94-3.05L79.94-3.05Q80.34-3.05 80.59-3.15L80.59-3.15ZM104.49-21.2Q104.64-20.7 104.54-19.65L104.54-19.65 103.94-13.75Q104.19-13.95 104.69-15.18 105.19-16.4 105.64-17.18 106.09-17.95 106.34-18.2L106.34-18.2Q108.69-20.45 111.64-20.9 114.59-21.35 118.14-21.3L118.14-21.3Q118.49-21.3 118.92-21.03 119.34-20.75 119.34-20.58 119.34-20.4 119.04-20.03 118.74-19.65 118.49-19.55L118.49-19.55Q115.49-18.55 113.22-17.25 110.94-15.95 109.29-13.85L109.29-13.85Q105.39-8.9 104.79-3.65L104.79-3.65Q104.64-2.25 103.94-1.78 103.24-1.3 101.99-1.3L101.99-1.3Q100.59-1.3 99.49-2.5 98.39-3.7 98.39-5.15L98.39-5.15Q98.44-10.45 98.44-21.05L98.44-21.05Q98.44-22.5 99.09-23.08 99.74-23.65 101.44-23.65L101.44-23.65Q102.69-23.65 103.57-22.95 104.44-22.25 104.49-21.2L104.49-21.2ZM139.19-31.65Q139.24-31.6 137.94-32.75L137.94-32.75Q137.04-33.55 136.59-33.9L136.59-33.9Q136.79-35.25 137.59-35.8 138.39-36.35 139.69-36.65L139.69-36.65Q141.04-37 142.59-37L142.59-37Q144.09-37 145.64-36.7L145.64-36.7Q150.09-35.9 153.49-34.85 156.89-33.8 159.84-31.9L159.84-31.9Q161.89-30.65 163.29-28.95L163.29-28.95Q165.34-26.3 165.34-23.55L165.34-23.55Q165.34-21.2 163.79-18.7L163.79-18.7Q157.89-9.35 151.64-3.95L151.64-3.95Q147.84-0.6 143.24 1.55L143.24 1.55Q141.54 2.4 139.69 2.4L139.69 2.4Q137.49 2.4 135.44 1.15L135.44 1.15Q134.69 0.65 134.29 0.13 133.89-0.4 133.89-1.1L133.89-1.1 133.94-1.55 134.29-4.15Q134.89-8.75 135.39-11L135.39-11 135.64-12.1Q137.14-18.6 137.89-22.58 138.64-26.55 138.99-30.75L138.99-30.75 139.19-31.65ZM145.79-32.25Q145.19-32.3 144.19-32.15L144.19-32.15 143.09-32Q144.29-31 144.84-30.25 145.39-29.5 145.39-28.65L145.39-28.65Q145.39-28.45 145.29-27.95L145.29-27.95Q144.64-25.05 143.54-20.8L143.54-20.8 141.74-13.6Q140.54-8.7 139.64-4.5L139.64-4.5Q139.49-3.95 139.46-3.28 139.44-2.6 139.44-2.3L139.44-2.3Q139.89-2.1 139.94-2.1L139.94-2.1 140.59-2.35Q148.09-6 153.39-12.55L153.39-12.55Q155.54-15.3 157.01-17.75 158.49-20.2 159.24-22.9L159.24-22.9Q159.44-23.55 159.44-24.45L159.44-24.45Q159.44-26 158.66-27.25 157.89-28.5 156.54-29.15L156.54-29.15Q151.54-31.4 145.79-32.25L145.79-32.25ZM181.28-3.35Q179.73-2.4 177.73-2.4L177.73-2.4Q175.53-2.4 173.51-3.53 171.48-4.65 170.28-6.75 169.08-8.85 169.28-11.55L169.28-11.55 169.53-12.75Q169.83-14.55 170.03-15.4L170.03-15.4Q170.48-17.25 171.83-18 173.18-18.75 175.43-19.2L175.43-19.2Q176.88-19.5 178.28-19.5L178.28-19.5Q182.68-19.5 185.68-16.55L185.68-16.55Q187.28-14.95 187.28-12.65L187.28-12.65Q187.28-10.4 185.63-7.8L185.63-7.8Q183.73-4.85 181.28-3.35L181.28-3.35ZM177.08-16.95Q176.28-15 175.38-12.1L175.38-12.1 174.88-10.6 175.23-10.45Q175.23-10.1 175.26-9.38 175.28-8.65 175.43-8.15L175.43-8.15Q175.98-6.6 176.68-6.25L176.68-6.25Q176.98-6.1 177.56-6.4 178.13-6.7 178.58-7.1L178.58-7.1Q179.28-7.7 180.83-9.6L180.83-9.6Q181.98-10.9 181.98-12.7L181.98-12.7Q181.98-14.25 181.11-15.5 180.23-16.75 178.68-17.2L178.68-17.2Q178.53-17.25 178.13-17.25L178.13-17.25Q177.18-17.25 177.08-16.95L177.08-16.95ZM193.23 1.1Q189.03 1.1 187.88-2.5L187.88-2.5Q188.28-2.5 188.96-2.48 189.63-2.45 190.08-2.35L190.08-2.35Q190.78-2.25 191.08-2.25L191.08-2.25Q193.33-2.25 194.83-4.25L194.83-4.25Q195.88-5.7 195.88-7.2L195.88-7.2Q195.88-8.2 195.38-9.15L195.38-9.15Q194.28-11.1 192.68-13.45L192.68-13.45Q191.63-15 190.78-16.4L190.78-16.4Q189.78-18 189.78-19.95L189.78-19.95Q189.78-21.75 190.81-23.13 191.83-24.5 193.83-24.85L193.83-24.85 195.43-25.15Q198.03-25.65 199.33-25.65L199.33-25.65Q201.48-25.65 203.13-24.65L203.13-24.65Q203.48-24.4 203.86-23.78 204.23-23.15 204.43-22.8L204.43-22.8Q204.08-22.65 203.46-22.33 202.83-22 202.38-21.95L202.38-21.95Q201.68-21.85 200.28-21.85L200.28-21.85Q198.93-21.85 198.23-21.8L198.23-21.8Q196.63-21.65 195.71-20.73 194.78-19.8 194.78-18.5L194.78-18.5Q194.78-17.5 195.38-16.45L195.38-16.45Q196.73-14.2 199.13-11.3L199.13-11.3Q200.93-9.05 200.93-6.65L200.93-6.65Q200.93-5.35 200.33-3.9L200.33-3.9Q198.28 1.1 193.23 1.1L193.23 1.1ZM223.78-31.65Q223.83-31.6 222.53-32.75L222.53-32.75Q221.63-33.55 221.18-33.9L221.18-33.9Q221.38-35.25 222.18-35.8 222.98-36.35 224.28-36.65L224.28-36.65Q225.63-37 227.18-37L227.18-37Q228.68-37 230.23-36.7L230.23-36.7Q234.68-35.9 238.08-34.85 241.48-33.8 244.43-31.9L244.43-31.9Q246.48-30.65 247.88-28.95L247.88-28.95Q249.93-26.3 249.93-23.55L249.93-23.55Q249.93-21.2 248.38-18.7L248.38-18.7Q242.48-9.35 236.23-3.95L236.23-3.95Q232.43-0.6 227.83 1.55L227.83 1.55Q226.13 2.4 224.28 2.4L224.28 2.4Q222.08 2.4 220.03 1.15L220.03 1.15Q219.28 0.65 218.88 0.13 218.48-0.4 218.48-1.1L218.48-1.1 218.53-1.55 218.88-4.15Q219.48-8.75 219.98-11L219.98-11 220.23-12.1Q221.73-18.6 222.48-22.58 223.23-26.55 223.58-30.75L223.58-30.75 223.78-31.65ZM230.38-32.25Q229.78-32.3 228.78-32.15L228.78-32.15 227.68-32Q228.88-31 229.43-30.25 229.98-29.5 229.98-28.65L229.98-28.65Q229.98-28.45 229.88-27.95L229.88-27.95Q229.23-25.05 228.13-20.8L228.13-20.8 226.33-13.6Q225.13-8.7 224.23-4.5L224.23-4.5Q224.08-3.95 224.05-3.28 224.03-2.6 224.03-2.3L224.03-2.3Q224.48-2.1 224.53-2.1L224.53-2.1 225.18-2.35Q232.68-6 237.98-12.55L237.98-12.55Q240.13-15.3 241.6-17.75 243.08-20.2 243.83-22.9L243.83-22.9Q244.03-23.55 244.03-24.45L244.03-24.45Q244.03-26 243.25-27.25 242.48-28.5 241.13-29.15L241.13-29.15Q236.13-31.4 230.38-32.25L230.38-32.25ZM261.52-7.8Q261.02-7.5 260.07-7.5L260.07-7.5Q259.72-7.5 259.22-7.55 258.72-7.6 258.37-7.55L258.37-7.55Q258.77-5.9 260.27-4.88 261.77-3.85 263.62-3.85L263.62-3.85Q265.22-3.85 266.47-4.55L266.47-4.55Q268.32-5.5 269.67-6.8L269.67-6.8Q270.62-7.75 271.47-7.75L271.47-7.75Q272.02-7.75 272.42-7.2L272.42-7.2Q272.82-6.55 272.82-5.6L272.82-5.6Q272.82-4.6 272.42-4.05L272.42-4.05Q271.12-2.05 269.05-1.3 266.97-0.55 264.22-0.55L264.22-0.55Q261.37-0.55 258.72-1.8 256.07-3.05 254.2-5.23 252.32-7.4 251.72-10.05L251.72-10.05Q251.32-11.6 251.32-13.1L251.32-13.1Q251.32-15.45 252.65-16.9 253.97-18.35 256.92-19.65L256.92-19.65Q259.62-20.8 261.92-20.8L261.92-20.8Q263.57-20.8 265.12-20.3L265.12-20.3Q269.92-18.8 269.92-16.2L269.92-16.2Q269.92-14.55 267.97-12.2L267.97-12.2Q267.02-11.1 265.72-10.25 264.42-9.4 263.2-8.72 261.97-8.05 261.52-7.8L261.52-7.8ZM263.62-17.05Q263.57-17.3 263.25-17.48 262.92-17.65 262.87-17.7L262.87-17.7Q261.52-17.8 260.12-16.93 258.72-16.05 257.8-14.7 256.87-13.35 256.87-12.1L256.87-12.1 256.92-11.7Q256.97-11.5 257.45-11.2 257.92-10.9 258.02-11L258.02-11Q261.57-13.65 263.37-15.25L263.37-15.25Q263.67-15.55 263.67-16.35L263.67-16.35Q263.67-16.85 263.62-17.05L263.62-17.05ZM283.57-10.95Q283.77-10.55 284.02-9.65L284.02-9.65Q284.57-7.95 284.67-7.75L284.67-7.75Q285.72-9.65 286.62-11.5L286.62-11.5Q288.07-14.5 288.87-15.7L288.87-15.7Q290.32-17.9 292.32-19.6L292.32-19.6Q292.72-20 293.27-20L293.27-20Q293.77-20 294.1-19.6 294.42-19.2 294.52-18.6L294.52-18.6Q294.57-18.4 294.57-17.95L294.57-17.95Q294.57-16.85 294.17-15.75L294.17-15.75Q293.42-13.8 290.47-6.2L290.47-6.2 288.32-0.65Q287.87 0.6 286.9 1.28 285.92 1.95 284.82 1.95L284.82 1.95Q283.17 1.95 281.92 0.55L281.92 0.55Q281.17-0.35 280.37-2.55L280.37-2.55Q278.07-9.6 276.52-14.65L276.52-14.65Q276.37-15.05 276.1-15.68 275.82-16.3 275.82-16.7L275.82-16.7Q275.82-17.4 276.57-17.95L276.57-17.95Q277.32-18.5 278.17-18.5L278.17-18.5Q279.12-18.5 280.52-17.55L280.52-17.55Q281.52-16.8 281.97-15.85 282.42-14.9 282.82-13.35L282.82-13.35Q283.22-11.75 283.57-10.95L283.57-10.95ZM314.82-2.55Q314.37-2.75 313.92-2.75L313.92-2.75Q313.47-2.75 313.14-2.53 312.82-2.3 312.42-1.85L312.42-1.85Q311.82-1.25 311.17-0.85L311.17-0.85Q310.57-0.5 308.97-0.2L308.97-0.2Q308.27-0.1 307.82-0.1L307.82-0.1Q305.72-0.1 303.44-1.03 301.17-1.95 300.22-3.25L300.22-3.25Q299.22-4.65 299.27-6.25L299.27-6.25Q299.32-8.65 301.27-11.05L301.27-11.05Q303.17-13.35 304.74-14.3 306.32-15.25 309.07-15.5L309.07-15.5Q309.67-15.5 310.79-15.7 311.92-15.9 311.92-16.25L311.92-16.25Q311.92-16.95 311.29-17.53 310.67-18.1 308.77-18.1L308.77-18.1Q308.07-18.1 306.67-18L306.67-18Q305.27-17.9 304.72-17.9L304.72-17.9Q303.02-17.9 302.27-18.45L302.27-18.45Q302.07-18.55 302.07-19.4L302.07-19.4Q302.07-20.9 303.12-21.3L303.12-21.3Q305.27-22.1 307.57-22.15L307.57-22.15Q310.47-22.15 312.94-20.88 315.42-19.6 316.57-17.7L316.57-17.7Q317.72-15.8 318.07-12.45L318.07-12.45Q318.47-8.7 318.47-2.9L318.47-2.9Q318.47-1.3 318.02-1.05L318.02-1.05Q317.62-0.8 317.27-0.8L317.27-0.8Q316.82-0.8 316.44-1.07 316.07-1.35 315.62-1.85L315.62-1.85Q315.17-2.4 314.82-2.55L314.82-2.55ZM306.92-3.15Q309.27-3.85 311.52-5.4L311.52-5.4Q312.02-5.75 312.42-6.3 312.82-6.85 312.92-7L312.92-7Q313.02-7.15 313.09-7.88 313.17-8.6 313.12-9.05L313.12-9.05Q313.07-9.2 312.94-9.85 312.82-10.5 312.57-11L312.57-11Q312.32-11.4 311.77-11.75 311.22-12.1 310.77-12.05L310.77-12.05Q309.82-12 308.72-11.35 307.62-10.7 306.67-9.6L306.67-9.6Q305.72-8.45 305.19-7.28 304.67-6.1 304.67-5.1L304.67-5.1Q304.77-3.75 305.42-3.3L305.42-3.3Q305.77-3.05 306.27-3.05L306.27-3.05Q306.67-3.05 306.92-3.15L306.92-3.15ZM328.52 1.1Q324.32 1.1 323.17-2.5L323.17-2.5Q323.57-2.5 324.24-2.48 324.92-2.45 325.37-2.35L325.37-2.35Q326.07-2.25 326.37-2.25L326.37-2.25Q328.62-2.25 330.12-4.25L330.12-4.25Q331.17-5.7 331.17-7.2L331.17-7.2Q331.17-8.2 330.67-9.15L330.67-9.15Q329.57-11.1 327.97-13.45L327.97-13.45Q326.92-15 326.07-16.4L326.07-16.4Q325.07-18 325.07-19.95L325.07-19.95Q325.07-21.75 326.09-23.13 327.12-24.5 329.12-24.85L329.12-24.85 330.72-25.15Q333.32-25.65 334.62-25.65L334.62-25.65Q336.77-25.65 338.42-24.65L338.42-24.65Q338.77-24.4 339.14-23.78 339.52-23.15 339.72-22.8L339.72-22.8Q339.37-22.65 338.74-22.33 338.12-22 337.67-21.95L337.67-21.95Q336.97-21.85 335.57-21.85L335.57-21.85Q334.22-21.85 333.52-21.8L333.52-21.8Q331.92-21.65 330.99-20.73 330.07-19.8 330.07-18.5L330.07-18.5Q330.07-17.5 330.67-16.45L330.67-16.45Q332.02-14.2 334.42-11.3L334.42-11.3Q336.22-9.05 336.22-6.65L336.22-6.65Q336.22-5.35 335.62-3.9L335.62-3.9Q333.57 1.1 328.52 1.1L328.52 1.1Z" opacity="1" transform="matrix(1,0,0,1,0,0)" fill="#ffffff" class="undefined-text-0" data-fill-palette-color="primary" id="text-0"></path></svg></g></svg></g><g transform="matrix(1,0,0,1,0,86.79527208226578)"><svg viewBox="0 0 227.88379199999997 19.11072913070157" height="19.11072913070157" width="227.88379199999997"><g transform="matrix(1,0,0,1,0,0)"><svg width="227.88379199999997" viewBox="-2 -37.25 489.8500061035156 42" height="19.11072913070157" data-palette-color="#ffffff"><path d="M2 0L9.35-32.5 14.6-32.5 21.95 0 18.45 0 16.75-7.5 7.2-7.5 5.5 0 2 0ZM16.05-10.5L11.95-28.6 7.85-10.5 16.05-10.5ZM41.6 0L28.95 0 28.95-32.5 32.45-32.5 32.45-3 41.6-3 41.6 0ZM55.65 0L55.65 0 47.6 0 47.6-32.5 55.65-32.5Q59.55-32.5 61.57-30.65 63.6-28.8 63.6-25.5L63.6-25.5 63.6-7Q63.6-3.65 61.6-1.83 59.6 0 55.65 0ZM60.1-7L60.1-7 60.1-25.5Q60.1-27.4 58.95-28.45 57.8-29.5 55.65-29.5L55.65-29.5 51.1-29.5 51.1-3 55.65-3Q60.1-3 60.1-7ZM85.09-6.25L85.09-6.25 85.09-9 88.59-9 88.59-6.25Q88.59-2.9 86.54-1.07 84.49 0.75 80.39 0.75 76.29 0.75 74.19-1.07 72.09-2.9 72.09-6.25L72.09-6.25 72.09-26.25Q72.09-29.6 74.14-31.43 76.19-33.25 80.29-33.25 84.39-33.25 86.49-31.43 88.59-29.6 88.59-26.25L88.59-26.25 88.59-15.25 75.59-15.25 75.59-6.25Q75.59-2.25 80.34-2.25 85.09-2.25 85.09-6.25ZM75.59-26.25L75.59-26.25 75.59-18.25 85.09-18.25 85.09-26.25Q85.09-30.25 80.34-30.25 75.59-30.25 75.59-26.25ZM113.34-26.25L113.34 0 111.84 0 110.54-3.2Q109.49-1.4 107.79-0.33 106.09 0.75 104.04 0.75L104.04 0.75Q96.84 0.75 96.84-6.25L96.84-6.25 96.84-11.25Q96.84-18.25 104.04-18.25L104.04-18.25 109.84-18.25 109.84-26.45Q109.84-28.25 108.69-29.25 107.54-30.25 105.29-30.25L105.29-30.25Q100.84-30.25 100.84-26.45L100.84-26.45 100.84-23.5 97.34-23.5 97.34-26.25Q97.34-29.6 99.31-31.43 101.29-33.25 105.29-33.25 109.29-33.25 111.31-31.43 113.34-29.6 113.34-26.25L113.34-26.25ZM109.84-7.1L109.84-15.25 104.04-15.25Q101.94-15.25 101.14-14.2 100.34-13.15 100.34-11.25L100.34-11.25 100.34-6.25Q100.34-4.35 101.14-3.3 101.94-2.25 104.04-2.25 106.14-2.25 107.94-3.88 109.74-5.5 109.84-7.1L109.84-7.1ZM142.39 0L142.39 0 134.34 0 134.34-32.5 142.39-32.5Q146.28-32.5 148.31-30.65 150.34-28.8 150.34-25.5L150.34-25.5 150.34-7Q150.34-3.65 148.34-1.83 146.34 0 142.39 0ZM146.84-7L146.84-7 146.84-25.5Q146.84-27.1 145.66-28.3 144.49-29.5 142.39-29.5L142.39-29.5 137.84-29.5 137.84-3 142.39-3Q144.49-3 145.66-4.17 146.84-5.35 146.84-7ZM171.83-6.25L171.83-6.25 171.83-9 175.33-9 175.33-6.25Q175.33-2.9 173.28-1.07 171.23 0.75 167.13 0.75 163.03 0.75 160.93-1.07 158.83-2.9 158.83-6.25L158.83-6.25 158.83-26.25Q158.83-29.6 160.88-31.43 162.93-33.25 167.03-33.25 171.13-33.25 173.23-31.43 175.33-29.6 175.33-26.25L175.33-26.25 175.33-15.25 162.33-15.25 162.33-6.25Q162.33-2.25 167.08-2.25 171.83-2.25 171.83-6.25ZM162.33-26.25L162.33-26.25 162.33-18.25 171.83-18.25 171.83-26.25Q171.83-30.25 167.08-30.25 162.33-30.25 162.33-26.25ZM192.58-32.5L209.08-32.5 209.08-29.5 202.58-29.5 202.58 0 199.08 0 199.08-29.5 192.58-29.5 192.58-32.5ZM215.08-6.25L215.08-6.25 215.08-32.5 218.58-32.5 218.58-6.25Q218.58-4.35 219.4-3.3 220.23-2.25 222.43-2.25 224.63-2.25 226.48-3.95 228.33-5.65 228.33-7.25L228.33-7.25 228.33-32.5 231.83-32.5 231.83 0 230.33 0 229.03-3.2Q227.93-1.4 226.2-0.33 224.48 0.75 222.43 0.75L222.43 0.75Q215.08 0.75 215.08-6.25ZM245.32-22.85L245.32 0 241.82 0 241.82-32.5 243.32-32.5 244.77-28.8Q246.37-33.25 249.87-33.25L249.87-33.25Q255.82-33.25 255.82-26.75L255.82-26.75 255.82-23.5 252.47-23.5 252.47-26.95Q252.47-30.25 249.72-30.25L249.72-30.25Q248.07-30.25 246.7-28.35 245.32-26.45 245.32-22.85L245.32-22.85ZM265.32-32.5L265.32 0 261.82 0 261.82-32.5 265.32-32.5ZM291.22-6.25L291.22-6.25Q291.22 0.75 282.77 0.75 274.32 0.75 274.32-6.25L274.32-6.25 274.32-10.5 277.82-10.5 277.82-6.05Q277.82-4.25 279.07-3.25 280.32-2.25 282.77-2.25 285.22-2.25 286.47-3.25 287.72-4.25 287.72-5.98 287.72-7.7 287.34-8.72 286.97-9.75 285.82-10.9L285.82-10.9 277.02-19.5Q275.47-21.05 274.89-22.53 274.32-24 274.32-26.25L274.32-26.25Q274.32-29.6 276.39-31.43 278.47-33.25 282.67-33.25L282.67-33.25Q290.72-33.25 290.72-26.25L290.72-26.25 290.72-22 287.22-22 287.22-26.45Q287.22-28.25 286.04-29.25 284.87-30.25 282.52-30.25 280.17-30.25 278.99-29.25 277.82-28.25 277.82-26.5 277.82-24.75 278.17-23.75 278.52-22.75 279.72-21.65L279.72-21.65 288.67-13.05Q290.12-11.45 290.67-9.98 291.22-8.5 291.22-6.25ZM303.71-25.4L303.71 0 300.21 0 300.21-32.5 301.71-32.5 302.96-29.3Q304.01-31.1 305.71-32.18 307.41-33.25 309.41-33.25L309.41-33.25Q314.46-33.25 315.86-29.6L315.86-29.6Q318.26-33.25 322.16-33.25L322.16-33.25Q329.21-33.25 329.21-26.25L329.21-26.25 329.21 0 325.71 0 325.71-26.25Q325.71-30.25 322.11-30.25L322.11-30.25Q320.01-30.25 318.24-28.55 316.46-26.85 316.46-25.25L316.46-25.25 316.46 0 312.96 0 312.96-26.25Q312.96-30.25 309.36-30.25L309.36-30.25Q307.26-30.25 305.49-28.63 303.71-27 303.71-25.4L303.71-25.4ZM354.96-26.25L354.96-26.25 354.96-6.25Q354.96-2.9 352.84-1.07 350.71 0.75 346.49 0.75 342.26 0.75 340.11-1.07 337.96-2.9 337.96-6.25L337.96-6.25 337.96-26.25Q337.96-29.6 340.09-31.43 342.21-33.25 346.44-33.25 350.66-33.25 352.81-31.43 354.96-29.6 354.96-26.25ZM351.46-6.25L351.46-6.25 351.46-26.25Q351.46-30.25 346.46-30.25 341.46-30.25 341.46-26.25L341.46-26.25 341.46-6.25Q341.46-2.25 346.46-2.25 351.46-2.25 351.46-6.25ZM379.21-11.5L379.21 0 375.71 0 375.71-32.5 383.26-32.5Q387.16-32.5 389.18-30.65 391.21-28.8 391.21-25.5L391.21-25.5 391.21-18.5Q391.21-13.4 386.81-12L386.81-12 392.96 0 389.11 0 383.26-11.5 379.21-11.5ZM387.71-18.5L387.71-18.5 387.71-25.5Q387.71-27.4 386.56-28.45 385.41-29.5 383.26-29.5L383.26-29.5 379.21-29.5 379.21-14.5 383.26-14.5Q387.71-14.5 387.71-18.5ZM399.45-6.25L399.45-6.25 399.45-32.5 402.95-32.5 402.95-6.25Q402.95-4.35 403.78-3.3 404.6-2.25 406.81-2.25 409-2.25 410.85-3.95 412.7-5.65 412.7-7.25L412.7-7.25 412.7-32.5 416.2-32.5 416.2 0 414.7 0 413.4-3.2Q412.31-1.4 410.58-0.33 408.85 0.75 406.81 0.75L406.81 0.75Q399.45 0.75 399.45-6.25ZM429.7-22.85L429.7 0 426.2 0 426.2-32.5 427.7-32.5 429.15-28.8Q430.75-33.25 434.25-33.25L434.25-33.25Q440.2-33.25 440.2-26.75L440.2-26.75 440.2-23.5 436.85-23.5 436.85-26.95Q436.85-30.25 434.1-30.25L434.1-30.25Q432.45-30.25 431.08-28.35 429.7-26.45 429.7-22.85L429.7-22.85ZM461.7-26.25L461.7 0 460.2 0 458.9-3.2Q457.85-1.4 456.15-0.33 454.45 0.75 452.4 0.75L452.4 0.75Q445.2 0.75 445.2-6.25L445.2-6.25 445.2-11.25Q445.2-18.25 452.4-18.25L452.4-18.25 458.2-18.25 458.2-26.45Q458.2-28.25 457.05-29.25 455.9-30.25 453.65-30.25L453.65-30.25Q449.2-30.25 449.2-26.45L449.2-26.45 449.2-23.5 445.7-23.5 445.7-26.25Q445.7-29.6 447.68-31.43 449.65-33.25 453.65-33.25 457.65-33.25 459.68-31.43 461.7-29.6 461.7-26.25L461.7-26.25ZM458.2-7.1L458.2-15.25 452.4-15.25Q450.3-15.25 449.5-14.2 448.7-13.15 448.7-11.25L448.7-11.25 448.7-6.25Q448.7-4.35 449.5-3.3 450.3-2.25 452.4-2.25 454.5-2.25 456.3-3.88 458.1-5.5 458.2-7.1L458.2-7.1ZM483.85 0L471.2 0 471.2-32.5 474.7-32.5 474.7-3 483.85-3 483.85 0Z" opacity="1" transform="matrix(1,0,0,1,0,0)" fill="#ffffff" class="undefined-text-1" data-fill-palette-color="secondary" id="text-1"></path></svg></g></svg></g></svg></g></svg></g></svg></g></svg></g><g mask="url(&quot;#3f517856-2681-47f0-be0f-d7d2307a5d1a&quot;)"><g transform="matrix(2.723778535860068, 0, 0, 2.723778535860068, 123.60785579968547, 1)"><svg xmlns="http://www.w3.org/2000/svg" xmlns:xlink="http://www.w3.org/1999/xlink" version="1.1" x="0" y="0" viewBox="22.775999069213867 5.071000099182129 54.447998046875 90.02200317382812" enable-background="new 0 0 100 100" xml:space="preserve" height="90.02200317382812" width="54.447998046875" class="icon-none" data-fill-palette-color="accent" id="none"><path d="M76.838 92.096l-24.93-43.18c-0.061-0.105-0.139-0.193-0.217-0.282v-8.896h11.953c0.005 0 0.012 0 0.018 0 0.772 0 1.397-0.625 1.397-1.396 0-0.308-0.101-0.593-0.268-0.824l-2.371-4.609 2.465-4.792c0.223-0.434 0.204-0.951-0.049-1.367-0.255-0.416-0.707-0.669-1.192-0.669H50.295c-0.771 0-1.397 0.625-1.397 1.396v8.525 2.34 10.292c-0.077 0.089-0.157 0.177-0.216 0.282L23.634 92.301c-0.332 0.576-0.332 1.285 0 1.862 0.333 0.576 0.948 0.93 1.613 0.93h50.095c0.007 0 0.015 0 0.02 0 1.028 0 1.862-0.833 1.862-1.861C77.224 92.805 77.079 92.411 76.838 92.096zM30.262 88.269l1.791 3.1h-3.581L30.262 88.269zM32.415 84.544l1.855-3.214 5.254 9.103c0.347 0.597 0.972 0.931 1.616 0.931 0.315 0 0.636-0.081 0.929-0.25 0.891-0.515 1.197-1.652 0.682-2.545l-6.329-10.965 1.854-3.214 5.254 9.101c0.346 0.599 0.971 0.932 1.615 0.932 0.316 0 0.636-0.081 0.93-0.25 0.89-0.515 1.196-1.652 0.682-2.545l-6.33-10.964 1.855-3.213 5.253 9.101c0.345 0.597 0.971 0.932 1.615 0.932 0.315 0 0.636-0.08 0.929-0.249 0.891-0.516 1.196-1.653 0.683-2.544l-6.33-10.964 1.856-3.215 5.252 9.099c0.346 0.598 0.971 0.932 1.615 0.932 0.315 0 0.637-0.08 0.93-0.249 0.891-0.516 1.195-1.653 0.682-2.546l-6.327-10.96 1.855-3.214 5.25 9.098c0.002 0.001 0.004 0.003 0.006 0.004l16.566 28.694H36.354L32.415 84.544zM51.691 28.874h9.664l-1.747 3.396c-0.208 0.401-0.208 0.878 0 1.279l1.747 3.396h-9.664v-0.943V28.874zM22.776 79.573V22.455c0-1.361 0.972-2.49 2.259-2.74 0.173-0.035 0.353-0.055 0.536-0.055h2.65c0.026 0 0.05 0.007 0.076 0.007 0.024 0 0.044-0.006 0.067-0.006 1.2 0 2.214 0.759 2.61 1.822 0.14 0.299 0.224 0.63 0.224 0.983 0 7.617 6.197 13.814 13.814 13.814 1.286 0 2.329 1.042 2.329 2.328 0 1.286-1.042 2.329-2.329 2.329-5.519 0-10.468-2.447-13.855-6.298v6.995h6.519c1.543 0 2.794 1.25 2.794 2.794v14.295c0 1.543-1.251 2.792-2.794 2.792s-2.793-1.249-2.793-2.792V47.222h-6.519v32.352c0 1.542-1.251 2.793-2.794 2.793C24.027 82.366 22.776 81.115 22.776 79.573zM25.26 13.143V9.106c0-2.227 1.807-4.035 4.035-4.035 2.229 0 4.035 1.808 4.035 4.035v4.037c0 2.228-1.807 4.035-4.035 4.035C27.067 17.178 25.26 15.371 25.26 13.143z" fill="#ffffff" data-fill-palette-color="accent"></path></svg></g></g><mask id="3f517856-2681-47f0-be0f-d7d2307a5d1a"><rect width="640" height="400" fill="white"></rect><g transform="matrix(1,0,0,1,0,70.64699939351631)"><svg viewBox="0 0 395.52 105.90600121296737" height="105.90600121296737" width="395.52"><g><svg viewBox="0 0 395.52 105.90600121296737" height="105.90600121296737" width="395.52"><g><svg viewBox="0 0 395.52 105.90600121296737" height="105.90600121296737" width="395.52"><g id="SvgjsG1031"><svg viewBox="0 0 395.52 105.90600121296737" height="105.90600121296737" width="395.52" id="SvgjsSvg1030"><g><svg viewBox="0 0 395.52 71.75442265795206" height="71.75442265795206" width="395.52"><g transform="matrix(1,0,0,1,0,0)"><svg width="395.52" viewBox="-1.5 -41 345.2200012207031 63.453125" height="71.75442265795206" data-palette-color="#ffffff"><path d="M11.5-2.6Q12.85-2.85 17.1-3.75L17.1-3.75 20.95-4.55Q21.6-3.9 22.05-3.4 22.5-2.9 22.5-2.55L22.5-2.55Q22.5-2.15 22.1-1.75 21.7-1.35 20.5-0.45L20.5-0.45Q20.35-0.35 20.18-0.1 20 0.15 19.8 0.2L19.8 0.2 18.45 0.55Q16.75 1.05 15.43 1.33 14.1 1.6 12.75 1.6L12.75 1.6Q7.95 1.6 4.9-1.25L4.9-1.25Q3.75-2.3 3.13-3.38 2.5-4.45 2.5-5.7L2.5-5.7Q2.5-6.25 2.55-6.5L2.55-6.5Q3.35-11.45 4.35-14.9L4.35-14.9Q5.4-18.7 8.15-27.8L8.15-27.8Q8.75-29.95 10.05-34.25L10.05-34.25Q10.4-35.4 11.03-35.85 11.65-36.3 12.85-36.2L12.85-36.2Q13.1-36.2 13.33-36.15 13.55-36.1 13.8-36.1L13.8-36.1Q16.9-35.85 16.9-33.1L16.9-33.1Q16.9-32.4 16.7-31.65L16.7-31.65Q16.3-30.05 15.2-27.35L15.2-27.35Q11.15-17.05 8.95-7.5L8.95-7.5Q8.65-6.3 8.65-5L8.65-5Q8.65-2.55 10.8-2.55L10.8-2.55Q11.25-2.55 11.5-2.6L11.5-2.6ZM29.8-21Q31.05-20.65 31.57-20.15 32.1-19.65 32.1-18.8L32.1-18.8Q32.1-18.4 31.95-17.75L31.95-17.75Q31.4-15.5 31.35-13.25L31.35-13.25Q31.3-10.7 32.15-8.55L32.15-8.55Q32.45-7.8 32.72-7.48 33-7.15 33.4-7.15L33.4-7.15Q33.9-7.15 34.7-8.05L34.7-8.05Q36.55-10.25 37.45-12.45 38.35-14.65 38.55-17L38.55-17Q38.7-18.55 39.05-18.95L39.05-18.95Q39.25-19.15 39.7-19.2 40.15-19.25 41-19.25L41-19.25Q42.35-19.15 42.87-19 43.4-18.85 43.6-18.5 43.8-18.15 43.8-17.35L43.8-17.35 43.75-15Q43.75-14.25 43.7-12.8L43.7-12.8Q43.55-8.3 43.45-6.1L43.45-6.1Q43.4-4.35 42.4-1.7L42.4-1.7Q42.3-1.55 41.85-1.28 41.4-1 41.05-0.95L41.05-0.95Q40.95-0.95 40.62-1.28 40.3-1.6 40.15-1.85L40.15-1.85Q39.8-2.65 39.35-4L39.35-4 38.95-4.95 38.85-5.25 38.7-5.1 37.9-4.6Q37.3-4.1 36.6-3.8L36.6-3.8Q35.45-3.1 33.85-3.1L33.85-3.1Q31.85-3.1 30.05-4.23 28.25-5.35 27.2-7.3L27.2-7.3Q25.5-10.3 25.5-14.25L25.5-14.25Q25.5-16.25 26.05-19.3L26.05-19.3Q26.15-20.05 27-20.6L27-20.6Q27.75-21.15 28.75-21.15L28.75-21.15Q29.25-21.15 29.8-21L29.8-21ZM65.55-12.6Q65.4-9 65.05-7.15 64.7-5.3 63.67-3.63 62.65-1.95 60.35 0.25L60.35 0.25 62.1 1.2Q63.7 2.1 64.45 2.45L64.45 2.45Q66.7 3.5 67.84 5.13 69 6.75 69 8.7L69 8.7Q69 11.1 67.4 13.45L67.4 13.45Q65.7 15.95 63.15 17.18 60.6 18.4 57.7 18.45L57.7 18.45Q55.55 18.5 53.3 17.75L53.3 17.75Q52.25 17.4 51.2 16.23 50.15 15.05 49.52 13.6 48.9 12.15 48.95 11.05L48.95 11.05Q49 10.8 49.15 10.53 49.3 10.25 49.5 10.2L49.5 10.2Q49.55 10.15 49.7 10.15L49.7 10.15Q49.85 10.15 50.12 10.28 50.4 10.4 50.5 10.45L50.5 10.45Q50.75 10.55 50.85 10.9L50.85 10.9Q51.55 12.45 52.4 13.35 53.25 14.25 54.65 14.15L54.65 14.15Q59.8 13.8 61.7 11.3L61.7 11.3Q62.35 10.5 62.77 9.47 63.2 8.45 63.2 7.55L63.2 7.55Q63.2 6.25 62.57 5.65 61.95 5.05 60.65 4.8L60.65 4.8Q59.25 4.55 57.97 4.1 56.7 3.65 54.9 2.75L54.9 2.75Q54 2.3 53.65 1.95 53.3 1.6 53.3 1.1L53.3 1.1Q53.3 0.6 53.9-1.45L53.9-1.45Q54-1.75 52.97-2.45 51.95-3.15 51.2-3.6L51.2-3.6Q48.5-5.2 48.5-8.8L48.5-8.8Q48.5-9.8 48.65-10.7L48.65-10.7Q49.55-16.2 54-18.5L54-18.5Q55.05-19.05 56.2-19.05L56.2-19.05Q57.05-19.05 57.95-18.8 58.85-18.55 59-18.5L59-18.5 60.05-18.2Q60.8-18 61.5-18L61.5-18Q62.45-18 63.22-18.35 64-18.7 64.8-19.45L64.8-19.45Q65.95-20.4 67.25-20.4L67.25-20.4Q68.2-20.4 68.95-19.88 69.7-19.35 70.05-18.35L70.05-18.35Q70.15-17.95 70.15-17.7L70.15-17.7Q70.15-17.25 70-17L70-17Q69.84-16.8 69.15-15.7L69.15-15.7Q68.8-15.05 68.5-14.6 68.2-14.15 67.55-13.6L67.55-13.6Q67.09-13.35 66.59-13.23 66.09-13.1 65.82-13 65.55-12.9 65.55-12.6L65.55-12.6ZM55.05-13.35Q53.5-11.55 53.5-9.7L53.5-9.7Q53.5-8.4 54.32-7.23 55.15-6.05 56.85-5.2L56.85-5.2Q58.75-5.95 59.8-7.8 60.85-9.65 60.85-11.85L60.85-11.85Q60.85-13.2 60.45-14.3 60.05-15.4 58.85-16L58.85-16Q56.55-15.1 55.05-13.35L55.05-13.35ZM88.49-2.55Q88.04-2.75 87.59-2.75L87.59-2.75Q87.14-2.75 86.82-2.53 86.49-2.3 86.09-1.85L86.09-1.85Q85.49-1.25 84.84-0.85L84.84-0.85Q84.24-0.5 82.64-0.2L82.64-0.2Q81.94-0.1 81.49-0.1L81.49-0.1Q79.39-0.1 77.12-1.03 74.84-1.95 73.89-3.25L73.89-3.25Q72.89-4.65 72.94-6.25L72.94-6.25Q72.99-8.65 74.94-11.05L74.94-11.05Q76.84-13.35 78.42-14.3 79.99-15.25 82.74-15.5L82.74-15.5Q83.34-15.5 84.47-15.7 85.59-15.9 85.59-16.25L85.59-16.25Q85.59-16.95 84.97-17.53 84.34-18.1 82.44-18.1L82.44-18.1Q81.74-18.1 80.34-18L80.34-18Q78.94-17.9 78.39-17.9L78.39-17.9Q76.69-17.9 75.94-18.45L75.94-18.45Q75.74-18.55 75.74-19.4L75.74-19.4Q75.74-20.9 76.79-21.3L76.79-21.3Q78.94-22.1 81.24-22.15L81.24-22.15Q84.14-22.15 86.62-20.88 89.09-19.6 90.24-17.7L90.24-17.7Q91.39-15.8 91.74-12.45L91.74-12.45Q92.14-8.7 92.14-2.9L92.14-2.9Q92.14-1.3 91.69-1.05L91.69-1.05Q91.29-0.8 90.94-0.8L90.94-0.8Q90.49-0.8 90.12-1.07 89.74-1.35 89.29-1.85L89.29-1.85Q88.84-2.4 88.49-2.55L88.49-2.55ZM80.59-3.15Q82.94-3.85 85.19-5.4L85.19-5.4Q85.69-5.75 86.09-6.3 86.49-6.85 86.59-7L86.59-7Q86.69-7.15 86.77-7.88 86.84-8.6 86.79-9.05L86.79-9.05Q86.74-9.2 86.62-9.85 86.49-10.5 86.24-11L86.24-11Q85.99-11.4 85.44-11.75 84.89-12.1 84.44-12.05L84.44-12.05Q83.49-12 82.39-11.35 81.29-10.7 80.34-9.6L80.34-9.6Q79.39-8.45 78.87-7.28 78.34-6.1 78.34-5.1L78.34-5.1Q78.44-3.75 79.09-3.3L79.09-3.3Q79.44-3.05 79.94-3.05L79.94-3.05Q80.34-3.05 80.59-3.15L80.59-3.15ZM104.49-21.2Q104.64-20.7 104.54-19.65L104.54-19.65 103.94-13.75Q104.19-13.95 104.69-15.18 105.19-16.4 105.64-17.18 106.09-17.95 106.34-18.2L106.34-18.2Q108.69-20.45 111.64-20.9 114.59-21.35 118.14-21.3L118.14-21.3Q118.49-21.3 118.92-21.03 119.34-20.75 119.34-20.58 119.34-20.4 119.04-20.03 118.74-19.65 118.49-19.55L118.49-19.55Q115.49-18.55 113.22-17.25 110.94-15.95 109.29-13.85L109.29-13.85Q105.39-8.9 104.79-3.65L104.79-3.65Q104.64-2.25 103.94-1.78 103.24-1.3 101.99-1.3L101.99-1.3Q100.59-1.3 99.49-2.5 98.39-3.7 98.39-5.15L98.39-5.15Q98.44-10.45 98.44-21.05L98.44-21.05Q98.44-22.5 99.09-23.08 99.74-23.65 101.44-23.65L101.44-23.65Q102.69-23.65 103.57-22.95 104.44-22.25 104.49-21.2L104.49-21.2ZM139.19-31.65Q139.24-31.6 137.94-32.75L137.94-32.75Q137.04-33.55 136.59-33.9L136.59-33.9Q136.79-35.25 137.59-35.8 138.39-36.35 139.69-36.65L139.69-36.65Q141.04-37 142.59-37L142.59-37Q144.09-37 145.64-36.7L145.64-36.7Q150.09-35.9 153.49-34.85 156.89-33.8 159.84-31.9L159.84-31.9Q161.89-30.65 163.29-28.95L163.29-28.95Q165.34-26.3 165.34-23.55L165.34-23.55Q165.34-21.2 163.79-18.7L163.79-18.7Q157.89-9.35 151.64-3.95L151.64-3.95Q147.84-0.6 143.24 1.55L143.24 1.55Q141.54 2.4 139.69 2.4L139.69 2.4Q137.49 2.4 135.44 1.15L135.44 1.15Q134.69 0.65 134.29 0.13 133.89-0.4 133.89-1.1L133.89-1.1 133.94-1.55 134.29-4.15Q134.89-8.75 135.39-11L135.39-11 135.64-12.1Q137.14-18.6 137.89-22.58 138.64-26.55 138.99-30.75L138.99-30.75 139.19-31.65ZM145.79-32.25Q145.19-32.3 144.19-32.15L144.19-32.15 143.09-32Q144.29-31 144.84-30.25 145.39-29.5 145.39-28.65L145.39-28.65Q145.39-28.45 145.29-27.95L145.29-27.95Q144.64-25.05 143.54-20.8L143.54-20.8 141.74-13.6Q140.54-8.7 139.64-4.5L139.64-4.5Q139.49-3.95 139.46-3.28 139.44-2.6 139.44-2.3L139.44-2.3Q139.89-2.1 139.94-2.1L139.94-2.1 140.59-2.35Q148.09-6 153.39-12.55L153.39-12.55Q155.54-15.3 157.01-17.75 158.49-20.2 159.24-22.9L159.24-22.9Q159.44-23.55 159.44-24.45L159.44-24.45Q159.44-26 158.66-27.25 157.89-28.5 156.54-29.15L156.54-29.15Q151.54-31.4 145.79-32.25L145.79-32.25ZM181.28-3.35Q179.73-2.4 177.73-2.4L177.73-2.4Q175.53-2.4 173.51-3.53 171.48-4.65 170.28-6.75 169.08-8.85 169.28-11.55L169.28-11.55 169.53-12.75Q169.83-14.55 170.03-15.4L170.03-15.4Q170.48-17.25 171.83-18 173.18-18.75 175.43-19.2L175.43-19.2Q176.88-19.5 178.28-19.5L178.28-19.5Q182.68-19.5 185.68-16.55L185.68-16.55Q187.28-14.95 187.28-12.65L187.28-12.65Q187.28-10.4 185.63-7.8L185.63-7.8Q183.73-4.85 181.28-3.35L181.28-3.35ZM177.08-16.95Q176.28-15 175.38-12.1L175.38-12.1 174.88-10.6 175.23-10.45Q175.23-10.1 175.26-9.38 175.28-8.65 175.43-8.15L175.43-8.15Q175.98-6.6 176.68-6.25L176.68-6.25Q176.98-6.1 177.56-6.4 178.13-6.7 178.58-7.1L178.58-7.1Q179.28-7.7 180.83-9.6L180.83-9.6Q181.98-10.9 181.98-12.7L181.98-12.7Q181.98-14.25 181.11-15.5 180.23-16.75 178.68-17.2L178.68-17.2Q178.53-17.25 178.13-17.25L178.13-17.25Q177.18-17.25 177.08-16.95L177.08-16.95ZM193.23 1.1Q189.03 1.1 187.88-2.5L187.88-2.5Q188.28-2.5 188.96-2.48 189.63-2.45 190.08-2.35L190.08-2.35Q190.78-2.25 191.08-2.25L191.08-2.25Q193.33-2.25 194.83-4.25L194.83-4.25Q195.88-5.7 195.88-7.2L195.88-7.2Q195.88-8.2 195.38-9.15L195.38-9.15Q194.28-11.1 192.68-13.45L192.68-13.45Q191.63-15 190.78-16.4L190.78-16.4Q189.78-18 189.78-19.95L189.78-19.95Q189.78-21.75 190.81-23.13 191.83-24.5 193.83-24.85L193.83-24.85 195.43-25.15Q198.03-25.65 199.33-25.65L199.33-25.65Q201.48-25.65 203.13-24.65L203.13-24.65Q203.48-24.4 203.86-23.78 204.23-23.15 204.43-22.8L204.43-22.8Q204.08-22.65 203.46-22.33 202.83-22 202.38-21.95L202.38-21.95Q201.68-21.85 200.28-21.85L200.28-21.85Q198.93-21.85 198.23-21.8L198.23-21.8Q196.63-21.65 195.71-20.73 194.78-19.8 194.78-18.5L194.78-18.5Q194.78-17.5 195.38-16.45L195.38-16.45Q196.73-14.2 199.13-11.3L199.13-11.3Q200.93-9.05 200.93-6.65L200.93-6.65Q200.93-5.35 200.33-3.9L200.33-3.9Q198.28 1.1 193.23 1.1L193.23 1.1ZM223.78-31.65Q223.83-31.6 222.53-32.75L222.53-32.75Q221.63-33.55 221.18-33.9L221.18-33.9Q221.38-35.25 222.18-35.8 222.98-36.35 224.28-36.65L224.28-36.65Q225.63-37 227.18-37L227.18-37Q228.68-37 230.23-36.7L230.23-36.7Q234.68-35.9 238.08-34.85 241.48-33.8 244.43-31.9L244.43-31.9Q246.48-30.65 247.88-28.95L247.88-28.95Q249.93-26.3 249.93-23.55L249.93-23.55Q249.93-21.2 248.38-18.7L248.38-18.7Q242.48-9.35 236.23-3.95L236.23-3.95Q232.43-0.6 227.83 1.55L227.83 1.55Q226.13 2.4 224.28 2.4L224.28 2.4Q222.08 2.4 220.03 1.15L220.03 1.15Q219.28 0.65 218.88 0.13 218.48-0.4 218.48-1.1L218.48-1.1 218.53-1.55 218.88-4.15Q219.48-8.75 219.98-11L219.98-11 220.23-12.1Q221.73-18.6 222.48-22.58 223.23-26.55 223.58-30.75L223.58-30.75 223.78-31.65ZM230.38-32.25Q229.78-32.3 228.78-32.15L228.78-32.15 227.68-32Q228.88-31 229.43-30.25 229.98-29.5 229.98-28.65L229.98-28.65Q229.98-28.45 229.88-27.95L229.88-27.95Q229.23-25.05 228.13-20.8L228.13-20.8 226.33-13.6Q225.13-8.7 224.23-4.5L224.23-4.5Q224.08-3.95 224.05-3.28 224.03-2.6 224.03-2.3L224.03-2.3Q224.48-2.1 224.53-2.1L224.53-2.1 225.18-2.35Q232.68-6 237.98-12.55L237.98-12.55Q240.13-15.3 241.6-17.75 243.08-20.2 243.83-22.9L243.83-22.9Q244.03-23.55 244.03-24.45L244.03-24.45Q244.03-26 243.25-27.25 242.48-28.5 241.13-29.15L241.13-29.15Q236.13-31.4 230.38-32.25L230.38-32.25ZM261.52-7.8Q261.02-7.5 260.07-7.5L260.07-7.5Q259.72-7.5 259.22-7.55 258.72-7.6 258.37-7.55L258.37-7.55Q258.77-5.9 260.27-4.88 261.77-3.85 263.62-3.85L263.62-3.85Q265.22-3.85 266.47-4.55L266.47-4.55Q268.32-5.5 269.67-6.8L269.67-6.8Q270.62-7.75 271.47-7.75L271.47-7.75Q272.02-7.75 272.42-7.2L272.42-7.2Q272.82-6.55 272.82-5.6L272.82-5.6Q272.82-4.6 272.42-4.05L272.42-4.05Q271.12-2.05 269.05-1.3 266.97-0.55 264.22-0.55L264.22-0.55Q261.37-0.55 258.72-1.8 256.07-3.05 254.2-5.23 252.32-7.4 251.72-10.05L251.72-10.05Q251.32-11.6 251.32-13.1L251.32-13.1Q251.32-15.45 252.65-16.9 253.97-18.35 256.92-19.65L256.92-19.65Q259.62-20.8 261.92-20.8L261.92-20.8Q263.57-20.8 265.12-20.3L265.12-20.3Q269.92-18.8 269.92-16.2L269.92-16.2Q269.92-14.55 267.97-12.2L267.97-12.2Q267.02-11.1 265.72-10.25 264.42-9.4 263.2-8.72 261.97-8.05 261.52-7.8L261.52-7.8ZM263.62-17.05Q263.57-17.3 263.25-17.48 262.92-17.65 262.87-17.7L262.87-17.7Q261.52-17.8 260.12-16.93 258.72-16.05 257.8-14.7 256.87-13.35 256.87-12.1L256.87-12.1 256.92-11.7Q256.97-11.5 257.45-11.2 257.92-10.9 258.02-11L258.02-11Q261.57-13.65 263.37-15.25L263.37-15.25Q263.67-15.55 263.67-16.35L263.67-16.35Q263.67-16.85 263.62-17.05L263.62-17.05ZM283.57-10.95Q283.77-10.55 284.02-9.65L284.02-9.65Q284.57-7.95 284.67-7.75L284.67-7.75Q285.72-9.65 286.62-11.5L286.62-11.5Q288.07-14.5 288.87-15.7L288.87-15.7Q290.32-17.9 292.32-19.6L292.32-19.6Q292.72-20 293.27-20L293.27-20Q293.77-20 294.1-19.6 294.42-19.2 294.52-18.6L294.52-18.6Q294.57-18.4 294.57-17.95L294.57-17.95Q294.57-16.85 294.17-15.75L294.17-15.75Q293.42-13.8 290.47-6.2L290.47-6.2 288.32-0.65Q287.87 0.6 286.9 1.28 285.92 1.95 284.82 1.95L284.82 1.95Q283.17 1.95 281.92 0.55L281.92 0.55Q281.17-0.35 280.37-2.55L280.37-2.55Q278.07-9.6 276.52-14.65L276.52-14.65Q276.37-15.05 276.1-15.68 275.82-16.3 275.82-16.7L275.82-16.7Q275.82-17.4 276.57-17.95L276.57-17.95Q277.32-18.5 278.17-18.5L278.17-18.5Q279.12-18.5 280.52-17.55L280.52-17.55Q281.52-16.8 281.97-15.85 282.42-14.9 282.82-13.35L282.82-13.35Q283.22-11.75 283.57-10.95L283.57-10.95ZM314.82-2.55Q314.37-2.75 313.92-2.75L313.92-2.75Q313.47-2.75 313.14-2.53 312.82-2.3 312.42-1.85L312.42-1.85Q311.82-1.25 311.17-0.85L311.17-0.85Q310.57-0.5 308.97-0.2L308.97-0.2Q308.27-0.1 307.82-0.1L307.82-0.1Q305.72-0.1 303.44-1.03 301.17-1.95 300.22-3.25L300.22-3.25Q299.22-4.65 299.27-6.25L299.27-6.25Q299.32-8.65 301.27-11.05L301.27-11.05Q303.17-13.35 304.74-14.3 306.32-15.25 309.07-15.5L309.07-15.5Q309.67-15.5 310.79-15.7 311.92-15.9 311.92-16.25L311.92-16.25Q311.92-16.95 311.29-17.53 310.67-18.1 308.77-18.1L308.77-18.1Q308.07-18.1 306.67-18L306.67-18Q305.27-17.9 304.72-17.9L304.72-17.9Q303.02-17.9 302.27-18.45L302.27-18.45Q302.07-18.55 302.07-19.4L302.07-19.4Q302.07-20.9 303.12-21.3L303.12-21.3Q305.27-22.1 307.57-22.15L307.57-22.15Q310.47-22.15 312.94-20.88 315.42-19.6 316.57-17.7L316.57-17.7Q317.72-15.8 318.07-12.45L318.07-12.45Q318.47-8.7 318.47-2.9L318.47-2.9Q318.47-1.3 318.02-1.05L318.02-1.05Q317.62-0.8 317.27-0.8L317.27-0.8Q316.82-0.8 316.44-1.07 316.07-1.35 315.62-1.85L315.62-1.85Q315.17-2.4 314.82-2.55L314.82-2.55ZM306.92-3.15Q309.27-3.85 311.52-5.4L311.52-5.4Q312.02-5.75 312.42-6.3 312.82-6.85 312.92-7L312.92-7Q313.02-7.15 313.09-7.88 313.17-8.6 313.12-9.05L313.12-9.05Q313.07-9.2 312.94-9.85 312.82-10.5 312.57-11L312.57-11Q312.32-11.4 311.77-11.75 311.22-12.1 310.77-12.05L310.77-12.05Q309.82-12 308.72-11.35 307.62-10.7 306.67-9.6L306.67-9.6Q305.72-8.45 305.19-7.28 304.67-6.1 304.67-5.1L304.67-5.1Q304.77-3.75 305.42-3.3L305.42-3.3Q305.77-3.05 306.27-3.05L306.27-3.05Q306.67-3.05 306.92-3.15L306.92-3.15ZM328.52 1.1Q324.32 1.1 323.17-2.5L323.17-2.5Q323.57-2.5 324.24-2.48 324.92-2.45 325.37-2.35L325.37-2.35Q326.07-2.25 326.37-2.25L326.37-2.25Q328.62-2.25 330.12-4.25L330.12-4.25Q331.17-5.7 331.17-7.2L331.17-7.2Q331.17-8.2 330.67-9.15L330.67-9.15Q329.57-11.1 327.97-13.45L327.97-13.45Q326.92-15 326.07-16.4L326.07-16.4Q325.07-18 325.07-19.95L325.07-19.95Q325.07-21.75 326.09-23.13 327.12-24.5 329.12-24.85L329.12-24.85 330.72-25.15Q333.32-25.65 334.62-25.65L334.62-25.65Q336.77-25.65 338.42-24.65L338.42-24.65Q338.77-24.4 339.14-23.78 339.52-23.15 339.72-22.8L339.72-22.8Q339.37-22.65 338.74-22.33 338.12-22 337.67-21.95L337.67-21.95Q336.97-21.85 335.57-21.85L335.57-21.85Q334.22-21.85 333.52-21.8L333.52-21.8Q331.92-21.65 330.99-20.73 330.07-19.8 330.07-18.5L330.07-18.5Q330.07-17.5 330.67-16.45L330.67-16.45Q332.02-14.2 334.42-11.3L334.42-11.3Q336.22-9.05 336.22-6.65L336.22-6.65Q336.22-5.35 335.62-3.9L335.62-3.9Q333.57 1.1 328.52 1.1L328.52 1.1Z" opacity="1" transform="matrix(1,0,0,1,0,0)" fill="black" class="undefined-text-0" data-fill-palette-color="primary" id="SvgjsPath1029" stroke-width="7" stroke="black" stroke-linejoin="round"></path></svg></g></svg></g><g transform="matrix(1,0,0,1,0,86.79527208226578)"><svg viewBox="0 0 227.88379199999997 19.11072913070157" height="19.11072913070157" width="227.88379199999997"><g transform="matrix(1,0,0,1,0,0)"><svg width="227.88379199999997" viewBox="-2 -37.25 489.8500061035156 42" height="19.11072913070157" data-palette-color="#ffffff"><path d="M2 0L9.35-32.5 14.6-32.5 21.95 0 18.45 0 16.75-7.5 7.2-7.5 5.5 0 2 0ZM16.05-10.5L11.95-28.6 7.85-10.5 16.05-10.5ZM41.6 0L28.95 0 28.95-32.5 32.45-32.5 32.45-3 41.6-3 41.6 0ZM55.65 0L55.65 0 47.6 0 47.6-32.5 55.65-32.5Q59.55-32.5 61.57-30.65 63.6-28.8 63.6-25.5L63.6-25.5 63.6-7Q63.6-3.65 61.6-1.83 59.6 0 55.65 0ZM60.1-7L60.1-7 60.1-25.5Q60.1-27.4 58.95-28.45 57.8-29.5 55.65-29.5L55.65-29.5 51.1-29.5 51.1-3 55.65-3Q60.1-3 60.1-7ZM85.09-6.25L85.09-6.25 85.09-9 88.59-9 88.59-6.25Q88.59-2.9 86.54-1.07 84.49 0.75 80.39 0.75 76.29 0.75 74.19-1.07 72.09-2.9 72.09-6.25L72.09-6.25 72.09-26.25Q72.09-29.6 74.14-31.43 76.19-33.25 80.29-33.25 84.39-33.25 86.49-31.43 88.59-29.6 88.59-26.25L88.59-26.25 88.59-15.25 75.59-15.25 75.59-6.25Q75.59-2.25 80.34-2.25 85.09-2.25 85.09-6.25ZM75.59-26.25L75.59-26.25 75.59-18.25 85.09-18.25 85.09-26.25Q85.09-30.25 80.34-30.25 75.59-30.25 75.59-26.25ZM113.34-26.25L113.34 0 111.84 0 110.54-3.2Q109.49-1.4 107.79-0.33 106.09 0.75 104.04 0.75L104.04 0.75Q96.84 0.75 96.84-6.25L96.84-6.25 96.84-11.25Q96.84-18.25 104.04-18.25L104.04-18.25 109.84-18.25 109.84-26.45Q109.84-28.25 108.69-29.25 107.54-30.25 105.29-30.25L105.29-30.25Q100.84-30.25 100.84-26.45L100.84-26.45 100.84-23.5 97.34-23.5 97.34-26.25Q97.34-29.6 99.31-31.43 101.29-33.25 105.29-33.25 109.29-33.25 111.31-31.43 113.34-29.6 113.34-26.25L113.34-26.25ZM109.84-7.1L109.84-15.25 104.04-15.25Q101.94-15.25 101.14-14.2 100.34-13.15 100.34-11.25L100.34-11.25 100.34-6.25Q100.34-4.35 101.14-3.3 101.94-2.25 104.04-2.25 106.14-2.25 107.94-3.88 109.74-5.5 109.84-7.1L109.84-7.1ZM142.39 0L142.39 0 134.34 0 134.34-32.5 142.39-32.5Q146.28-32.5 148.31-30.65 150.34-28.8 150.34-25.5L150.34-25.5 150.34-7Q150.34-3.65 148.34-1.83 146.34 0 142.39 0ZM146.84-7L146.84-7 146.84-25.5Q146.84-27.1 145.66-28.3 144.49-29.5 142.39-29.5L142.39-29.5 137.84-29.5 137.84-3 142.39-3Q144.49-3 145.66-4.17 146.84-5.35 146.84-7ZM171.83-6.25L171.83-6.25 171.83-9 175.33-9 175.33-6.25Q175.33-2.9 173.28-1.07 171.23 0.75 167.13 0.75 163.03 0.75 160.93-1.07 158.83-2.9 158.83-6.25L158.83-6.25 158.83-26.25Q158.83-29.6 160.88-31.43 162.93-33.25 167.03-33.25 171.13-33.25 173.23-31.43 175.33-29.6 175.33-26.25L175.33-26.25 175.33-15.25 162.33-15.25 162.33-6.25Q162.33-2.25 167.08-2.25 171.83-2.25 171.83-6.25ZM162.33-26.25L162.33-26.25 162.33-18.25 171.83-18.25 171.83-26.25Q171.83-30.25 167.08-30.25 162.33-30.25 162.33-26.25ZM192.58-32.5L209.08-32.5 209.08-29.5 202.58-29.5 202.58 0 199.08 0 199.08-29.5 192.58-29.5 192.58-32.5ZM215.08-6.25L215.08-6.25 215.08-32.5 218.58-32.5 218.58-6.25Q218.58-4.35 219.4-3.3 220.23-2.25 222.43-2.25 224.63-2.25 226.48-3.95 228.33-5.65 228.33-7.25L228.33-7.25 228.33-32.5 231.83-32.5 231.83 0 230.33 0 229.03-3.2Q227.93-1.4 226.2-0.33 224.48 0.75 222.43 0.75L222.43 0.75Q215.08 0.75 215.08-6.25ZM245.32-22.85L245.32 0 241.82 0 241.82-32.5 243.32-32.5 244.77-28.8Q246.37-33.25 249.87-33.25L249.87-33.25Q255.82-33.25 255.82-26.75L255.82-26.75 255.82-23.5 252.47-23.5 252.47-26.95Q252.47-30.25 249.72-30.25L249.72-30.25Q248.07-30.25 246.7-28.35 245.32-26.45 245.32-22.85L245.32-22.85ZM265.32-32.5L265.32 0 261.82 0 261.82-32.5 265.32-32.5ZM291.22-6.25L291.22-6.25Q291.22 0.75 282.77 0.75 274.32 0.75 274.32-6.25L274.32-6.25 274.32-10.5 277.82-10.5 277.82-6.05Q277.82-4.25 279.07-3.25 280.32-2.25 282.77-2.25 285.22-2.25 286.47-3.25 287.72-4.25 287.72-5.98 287.72-7.7 287.34-8.72 286.97-9.75 285.82-10.9L285.82-10.9 277.02-19.5Q275.47-21.05 274.89-22.53 274.32-24 274.32-26.25L274.32-26.25Q274.32-29.6 276.39-31.43 278.47-33.25 282.67-33.25L282.67-33.25Q290.72-33.25 290.72-26.25L290.72-26.25 290.72-22 287.22-22 287.22-26.45Q287.22-28.25 286.04-29.25 284.87-30.25 282.52-30.25 280.17-30.25 278.99-29.25 277.82-28.25 277.82-26.5 277.82-24.75 278.17-23.75 278.52-22.75 279.72-21.65L279.72-21.65 288.67-13.05Q290.12-11.45 290.67-9.98 291.22-8.5 291.22-6.25ZM303.71-25.4L303.71 0 300.21 0 300.21-32.5 301.71-32.5 302.96-29.3Q304.01-31.1 305.71-32.18 307.41-33.25 309.41-33.25L309.41-33.25Q314.46-33.25 315.86-29.6L315.86-29.6Q318.26-33.25 322.16-33.25L322.16-33.25Q329.21-33.25 329.21-26.25L329.21-26.25 329.21 0 325.71 0 325.71-26.25Q325.71-30.25 322.11-30.25L322.11-30.25Q320.01-30.25 318.24-28.55 316.46-26.85 316.46-25.25L316.46-25.25 316.46 0 312.96 0 312.96-26.25Q312.96-30.25 309.36-30.25L309.36-30.25Q307.26-30.25 305.49-28.63 303.71-27 303.71-25.4L303.71-25.4ZM354.96-26.25L354.96-26.25 354.96-6.25Q354.96-2.9 352.84-1.07 350.71 0.75 346.49 0.75 342.26 0.75 340.11-1.07 337.96-2.9 337.96-6.25L337.96-6.25 337.96-26.25Q337.96-29.6 340.09-31.43 342.21-33.25 346.44-33.25 350.66-33.25 352.81-31.43 354.96-29.6 354.96-26.25ZM351.46-6.25L351.46-6.25 351.46-26.25Q351.46-30.25 346.46-30.25 341.46-30.25 341.46-26.25L341.46-26.25 341.46-6.25Q341.46-2.25 346.46-2.25 351.46-2.25 351.46-6.25ZM379.21-11.5L379.21 0 375.71 0 375.71-32.5 383.26-32.5Q387.16-32.5 389.18-30.65 391.21-28.8 391.21-25.5L391.21-25.5 391.21-18.5Q391.21-13.4 386.81-12L386.81-12 392.96 0 389.11 0 383.26-11.5 379.21-11.5ZM387.71-18.5L387.71-18.5 387.71-25.5Q387.71-27.4 386.56-28.45 385.41-29.5 383.26-29.5L383.26-29.5 379.21-29.5 379.21-14.5 383.26-14.5Q387.71-14.5 387.71-18.5ZM399.45-6.25L399.45-6.25 399.45-32.5 402.95-32.5 402.95-6.25Q402.95-4.35 403.78-3.3 404.6-2.25 406.81-2.25 409-2.25 410.85-3.95 412.7-5.65 412.7-7.25L412.7-7.25 412.7-32.5 416.2-32.5 416.2 0 414.7 0 413.4-3.2Q412.31-1.4 410.58-0.33 408.85 0.75 406.81 0.75L406.81 0.75Q399.45 0.75 399.45-6.25ZM429.7-22.85L429.7 0 426.2 0 426.2-32.5 427.7-32.5 429.15-28.8Q430.75-33.25 434.25-33.25L434.25-33.25Q440.2-33.25 440.2-26.75L440.2-26.75 440.2-23.5 436.85-23.5 436.85-26.95Q436.85-30.25 434.1-30.25L434.1-30.25Q432.45-30.25 431.08-28.35 429.7-26.45 429.7-22.85L429.7-22.85ZM461.7-26.25L461.7 0 460.2 0 458.9-3.2Q457.85-1.4 456.15-0.33 454.45 0.75 452.4 0.75L452.4 0.75Q445.2 0.75 445.2-6.25L445.2-6.25 445.2-11.25Q445.2-18.25 452.4-18.25L452.4-18.25 458.2-18.25 458.2-26.45Q458.2-28.25 457.05-29.25 455.9-30.25 453.65-30.25L453.65-30.25Q449.2-30.25 449.2-26.45L449.2-26.45 449.2-23.5 445.7-23.5 445.7-26.25Q445.7-29.6 447.68-31.43 449.65-33.25 453.65-33.25 457.65-33.25 459.68-31.43 461.7-29.6 461.7-26.25L461.7-26.25ZM458.2-7.1L458.2-15.25 452.4-15.25Q450.3-15.25 449.5-14.2 448.7-13.15 448.7-11.25L448.7-11.25 448.7-6.25Q448.7-4.35 449.5-3.3 450.3-2.25 452.4-2.25 454.5-2.25 456.3-3.88 458.1-5.5 458.2-7.1L458.2-7.1ZM483.85 0L471.2 0 471.2-32.5 474.7-32.5 474.7-3 483.85-3 483.85 0Z" opacity="1" transform="matrix(1,0,0,1,0,0)" fill="black" class="undefined-text-1" data-fill-palette-color="secondary" id="SvgjsPath1028" stroke-width="7" stroke="black" stroke-linejoin="round"></path></svg></g></svg></g></svg></g></svg></g></svg></g></svg></g></mask></svg></g><defs></defs></svg><rect width="395.52" height="247.2" fill="none" stroke="none" visibility="hidden"></rect></g></svg>